<mxfile host="Electron" modified="2024-11-07T15:54:22.396Z" agent="Mozilla/5.0 (Windows NT 10.0; Win64; x64) AppleWebKit/537.36 (KHTML, like Gecko) draw.io/22.0.3 Chrome/114.0.5735.289 Electron/25.8.4 Safari/537.36" etag="gWFbjbFsOmhQTceT1c9d" version="22.0.3" type="device">
  <diagram name="Page-1" id="97916047-d0de-89f5-080d-49f4d83e522f">
    <mxGraphModel dx="1687" dy="993" grid="1" gridSize="10" guides="1" tooltips="1" connect="1" arrows="1" fold="1" page="1" pageScale="1.5" pageWidth="1169" pageHeight="827" background="none" math="0" shadow="0">
      <root>
        <mxCell id="0" />
        <mxCell id="1" parent="0" />
        <mxCell id="2" value="master" style="rounded=1;fillColor=#10739E;strokeColor=none;shadow=1;gradientColor=none;fontStyle=1;fontColor=#FFFFFF;fontSize=14;" parent="1" vertex="1">
          <mxGeometry x="632" y="180" width="200" height="60" as="geometry" />
        </mxCell>
        <mxCell id="3" value="nightly" style="rounded=1;fillColor=#10739E;strokeColor=none;shadow=1;gradientColor=none;fontStyle=1;fontColor=#FFFFFF;fontSize=14;" parent="1" vertex="1">
          <mxGeometry x="622" y="480" width="220" height="60" as="geometry" />
        </mxCell>
        <mxCell id="19" value="d0.4.0" style="rounded=1;fillColor=#10739E;strokeColor=none;shadow=1;gradientColor=none;fontStyle=1;fontColor=#FFFFFF;fontSize=14;" parent="1" vertex="1">
          <mxGeometry x="920" y="690" width="200" height="60" as="geometry" />
        </mxCell>
        <mxCell id="20" value="dev" style="rounded=1;fillColor=#10739E;strokeColor=none;shadow=1;gradientColor=none;fontStyle=1;fontColor=#FFFFFF;fontSize=14;" parent="1" vertex="1">
          <mxGeometry x="632" y="690" width="200" height="60" as="geometry" />
        </mxCell>
        <mxCell id="21" value="d0.3.0" style="rounded=1;fillColor=#d5e8d4;strokeColor=#82b366;shadow=1;fontStyle=1;fontSize=14;" parent="1" vertex="1">
          <mxGeometry x="360" y="810" width="200" height="60" as="geometry" />
        </mxCell>
        <mxCell id="22" value="d0.2.0" style="rounded=1;fillColor=#d5e8d4;strokeColor=#82b366;shadow=1;fontStyle=1;fontSize=14;" parent="1" vertex="1">
          <mxGeometry x="360" y="930" width="200" height="60" as="geometry" />
        </mxCell>
        <mxCell id="29" value="" style="edgeStyle=elbowEdgeStyle;elbow=horizontal;strokeWidth=4;endArrow=block;endFill=1;fontStyle=1;strokeColor=#23445D;entryX=0.5;entryY=1;entryDx=0;entryDy=0;exitX=0.5;exitY=0;exitDx=0;exitDy=0;" parent="1" source="3" target="t6sJ0Q-xifQmg-22PprA-79" edge="1">
          <mxGeometry x="22" y="165.5" width="100" height="100" as="geometry">
            <mxPoint x="920" y="480" as="sourcePoint" />
            <mxPoint x="733" y="440" as="targetPoint" />
            <Array as="points" />
          </mxGeometry>
        </mxCell>
        <mxCell id="t6sJ0Q-xifQmg-22PprA-64" value="end of sprint" style="edgeLabel;html=1;align=center;verticalAlign=middle;resizable=0;points=[];" vertex="1" connectable="0" parent="29">
          <mxGeometry relative="1" as="geometry">
            <mxPoint x="-5" y="-18" as="offset" />
          </mxGeometry>
        </mxCell>
        <mxCell id="46" value="" style="edgeStyle=elbowEdgeStyle;elbow=vertical;strokeWidth=4;endArrow=block;endFill=1;fontStyle=1;strokeColor=#23445D;" parent="1" source="20" edge="1">
          <mxGeometry x="72" y="165.5" width="100" height="100" as="geometry">
            <mxPoint x="731.41" y="809.9999999999998" as="sourcePoint" />
            <mxPoint x="731.41" y="540.0000000000002" as="targetPoint" />
          </mxGeometry>
        </mxCell>
        <mxCell id="t6sJ0Q-xifQmg-22PprA-63" value="daily" style="edgeLabel;html=1;align=center;verticalAlign=middle;resizable=0;points=[];" vertex="1" connectable="0" parent="46">
          <mxGeometry relative="1" as="geometry">
            <mxPoint x="2" y="-40" as="offset" />
          </mxGeometry>
        </mxCell>
        <mxCell id="47" value="" style="edgeStyle=elbowEdgeStyle;elbow=horizontal;strokeWidth=4;endArrow=block;endFill=1;fontStyle=1;strokeColor=#23445D;entryX=1;entryY=0.5;entryDx=0;entryDy=0;" parent="1" source="19" target="20" edge="1">
          <mxGeometry x="72" y="175.5" width="100" height="100" as="geometry">
            <mxPoint x="-138" y="170" as="sourcePoint" />
            <mxPoint x="-38" y="70" as="targetPoint" />
            <Array as="points">
              <mxPoint x="1000" y="720" />
            </Array>
          </mxGeometry>
        </mxCell>
        <mxCell id="t6sJ0Q-xifQmg-22PprA-93" value="frequent" style="edgeLabel;html=1;align=center;verticalAlign=middle;resizable=0;points=[];" vertex="1" connectable="0" parent="47">
          <mxGeometry relative="1" as="geometry">
            <mxPoint x="1" y="-4" as="offset" />
          </mxGeometry>
        </mxCell>
        <mxCell id="48" value="" style="edgeStyle=elbowEdgeStyle;elbow=vertical;strokeWidth=4;endArrow=block;endFill=1;fontStyle=1;strokeColor=#23445D;" parent="1" source="20" target="21" edge="1">
          <mxGeometry x="72" y="185.5" width="100" height="100" as="geometry">
            <mxPoint x="-138" y="180" as="sourcePoint" />
            <mxPoint x="-38" y="80" as="targetPoint" />
            <Array as="points">
              <mxPoint x="590" y="720" />
            </Array>
          </mxGeometry>
        </mxCell>
        <mxCell id="49" value="" style="edgeStyle=elbowEdgeStyle;elbow=vertical;strokeWidth=4;endArrow=block;endFill=1;fontStyle=1;strokeColor=#23445D;" parent="1" source="21" target="22" edge="1">
          <mxGeometry x="72" y="195.5" width="100" height="100" as="geometry">
            <mxPoint x="-138" y="190" as="sourcePoint" />
            <mxPoint x="-38" y="90" as="targetPoint" />
          </mxGeometry>
        </mxCell>
        <mxCell id="t6sJ0Q-xifQmg-22PprA-65" value="Tags" style="rounded=0;whiteSpace=wrap;html=1;" vertex="1" parent="1">
          <mxGeometry x="400" y="180" width="120" height="60" as="geometry" />
        </mxCell>
        <mxCell id="t6sJ0Q-xifQmg-22PprA-66" value="Protected Branches" style="rounded=0;whiteSpace=wrap;html=1;" vertex="1" parent="1">
          <mxGeometry x="640" y="800" width="190" height="80" as="geometry" />
        </mxCell>
        <mxCell id="t6sJ0Q-xifQmg-22PprA-67" value="Milestone Branches" style="rounded=0;whiteSpace=wrap;html=1;" vertex="1" parent="1">
          <mxGeometry x="960" y="480" width="120" height="60" as="geometry" />
        </mxCell>
        <mxCell id="t6sJ0Q-xifQmg-22PprA-68" value="Work Branches" style="rounded=0;whiteSpace=wrap;html=1;" vertex="1" parent="1">
          <mxGeometry x="1250" y="480" width="120" height="60" as="geometry" />
        </mxCell>
        <mxCell id="t6sJ0Q-xifQmg-22PprA-69" value="feat/my-work" style="rounded=1;fillColor=#10739E;strokeColor=none;shadow=1;gradientColor=none;fontStyle=1;fontColor=#FFFFFF;fontSize=14;" vertex="1" parent="1">
          <mxGeometry x="1210" y="690" width="200" height="60" as="geometry" />
        </mxCell>
        <mxCell id="t6sJ0Q-xifQmg-22PprA-71" value="" style="endArrow=classic;html=1;rounded=0;" edge="1" parent="1" source="t6sJ0Q-xifQmg-22PprA-69" target="19">
          <mxGeometry width="50" height="50" relative="1" as="geometry">
            <mxPoint x="810" y="640" as="sourcePoint" />
            <mxPoint x="860" y="590" as="targetPoint" />
          </mxGeometry>
        </mxCell>
        <mxCell id="t6sJ0Q-xifQmg-22PprA-72" value="fix/my-fix" style="rounded=1;fillColor=#10739E;strokeColor=none;shadow=1;gradientColor=none;fontStyle=1;fontColor=#FFFFFF;fontSize=14;" vertex="1" parent="1">
          <mxGeometry x="1210" y="570" width="200" height="60" as="geometry" />
        </mxCell>
        <mxCell id="t6sJ0Q-xifQmg-22PprA-78" value="" style="endArrow=classic;html=1;rounded=0;" edge="1" parent="1" source="t6sJ0Q-xifQmg-22PprA-72" target="19">
          <mxGeometry width="50" height="50" relative="1" as="geometry">
            <mxPoint x="980" y="630" as="sourcePoint" />
            <mxPoint x="1030" y="580" as="targetPoint" />
            <Array as="points">
              <mxPoint x="1020" y="600" />
            </Array>
          </mxGeometry>
        </mxCell>
        <mxCell id="t6sJ0Q-xifQmg-22PprA-79" value="unstable" style="rounded=1;fillColor=#10739E;strokeColor=none;shadow=1;gradientColor=none;fontStyle=1;fontColor=#FFFFFF;fontSize=14;" vertex="1" parent="1">
          <mxGeometry x="632" y="340" width="200" height="60" as="geometry" />
        </mxCell>
        <mxCell id="t6sJ0Q-xifQmg-22PprA-80" value="" style="endArrow=classic;html=1;rounded=0;" edge="1" parent="1" source="t6sJ0Q-xifQmg-22PprA-79" target="2">
          <mxGeometry width="50" height="50" relative="1" as="geometry">
            <mxPoint x="920" y="340" as="sourcePoint" />
            <mxPoint x="870" y="460" as="targetPoint" />
            <Array as="points" />
          </mxGeometry>
        </mxCell>
        <mxCell id="t6sJ0Q-xifQmg-22PprA-81" value="release" style="edgeLabel;html=1;align=center;verticalAlign=middle;resizable=0;points=[];" vertex="1" connectable="0" parent="t6sJ0Q-xifQmg-22PprA-80">
          <mxGeometry x="-0.0425" y="-3" relative="1" as="geometry">
            <mxPoint as="offset" />
          </mxGeometry>
        </mxCell>
        <mxCell id="t6sJ0Q-xifQmg-22PprA-89" value="r0.3.0" style="rounded=1;fillColor=#d5e8d4;strokeColor=#82b366;shadow=1;fontStyle=1;fontSize=14;" vertex="1" parent="1">
          <mxGeometry x="360" y="340" width="200" height="60" as="geometry" />
        </mxCell>
        <mxCell id="t6sJ0Q-xifQmg-22PprA-90" value="" style="endArrow=classic;html=1;rounded=0;" edge="1" parent="1" source="t6sJ0Q-xifQmg-22PprA-79" target="t6sJ0Q-xifQmg-22PprA-89">
          <mxGeometry width="50" height="50" relative="1" as="geometry">
            <mxPoint x="730" y="620" as="sourcePoint" />
            <mxPoint x="780" y="570" as="targetPoint" />
          </mxGeometry>
        </mxCell>
        <mxCell id="t6sJ0Q-xifQmg-22PprA-91" value="feat/my-work" style="rounded=1;fillColor=#10739E;strokeColor=none;shadow=1;gradientColor=none;fontStyle=1;fontColor=#FFFFFF;fontSize=14;" vertex="1" parent="1">
          <mxGeometry x="1210" y="800" width="200" height="60" as="geometry" />
        </mxCell>
        <mxCell id="t6sJ0Q-xifQmg-22PprA-92" value="" style="endArrow=classic;html=1;rounded=0;" edge="1" parent="1" source="t6sJ0Q-xifQmg-22PprA-91" target="19">
          <mxGeometry width="50" height="50" relative="1" as="geometry">
            <mxPoint x="1000" y="670" as="sourcePoint" />
            <mxPoint x="1050" y="620" as="targetPoint" />
            <Array as="points">
              <mxPoint x="1020" y="830" />
            </Array>
          </mxGeometry>
        </mxCell>
      </root>
    </mxGraphModel>
  </diagram>
</mxfile>
